REM DIRINDEX 1\2,1\4,1\5,1\6,1\7,1\3\8,1\3\9,1\3\10
REM DIRNAME cjc113,folder01,folder02,folder03,folder04,folder05,folder06,folder07,folder08,folder09
TITLE ""
FILE "DB4500_5th_6C_37.mp3" MP3
  TRACK 01 AUDIO
    TITLE "0:"
    INDEX 01 00:00:00
  TRACK 02 AUDIO
    TITLE "8:cjc113_4769"
    INDEX 01 00:00:01
  TRACK 03 AUDIO
    TITLE "0:"
    INDEX 01 00:01:17
  TRACK 04 AUDIO
    TITLE "9:cjc113_4770"
    INDEX 01 00:01:36
  TRACK 05 AUDIO
    TITLE "0:"
    INDEX 01 00:05:01
  TRACK 06 AUDIO
    TITLE "10:cjc113_4771"
    INDEX 01 00:05:18
  TRACK 07 AUDIO
    TITLE "0:"
    INDEX 01 00:08:44
  TRACK 08 AUDIO
    TITLE "8:cjc113_4772"
    INDEX 01 00:09:04
  TRACK 09 AUDIO
    TITLE "0:"
    INDEX 01 00:10:12
  TRACK 10 AUDIO
    TITLE "9:cjc113_4773"
    INDEX 01 00:10:29
  TRACK 11 AUDIO
    TITLE "0:"
    INDEX 01 00:11:60
  TRACK 12 AUDIO
    TITLE "10:cjc113_4774"
    INDEX 01 00:12:01
  TRACK 13 AUDIO
    TITLE "0:"
    INDEX 01 00:15:15
  TRACK 14 AUDIO
    TITLE "8:cjc113_4775"
    INDEX 01 00:15:54
  TRACK 15 AUDIO
    TITLE "0:"
    INDEX 01 00:16:65
  TRACK 16 AUDIO
    TITLE "9:cjc113_4776"
    INDEX 01 00:17:06
  TRACK 17 AUDIO
    TITLE "0:"
    INDEX 01 00:18:39
  TRACK 18 AUDIO
    TITLE "10:cjc113_4777"
    INDEX 01 00:18:56
  TRACK 19 AUDIO
    TITLE "0:"
    INDEX 01 00:21:74
  TRACK 20 AUDIO
    TITLE "8:cjc113_4778"
    INDEX 01 00:22:40
  TRACK 21 AUDIO
    TITLE "0:"
    INDEX 01 00:23:51
  TRACK 22 AUDIO
    TITLE "9:cjc113_4779"
    INDEX 01 00:23:65
  TRACK 23 AUDIO
    TITLE "0:"
    INDEX 01 00:25:11
  TRACK 24 AUDIO
    TITLE "10:cjc113_4780"
    INDEX 01 00:25:29
  TRACK 25 AUDIO
    TITLE "0:"
    INDEX 01 00:29:17
  TRACK 26 AUDIO
    TITLE "8:cjc113_4781"
    INDEX 01 00:29:56
  TRACK 27 AUDIO
    TITLE "0:"
    INDEX 01 00:30:67
  TRACK 28 AUDIO
    TITLE "9:cjc113_4782"
    INDEX 01 00:31:08
  TRACK 29 AUDIO
    TITLE "0:"
    INDEX 01 00:32:33
  TRACK 30 AUDIO
    TITLE "10:cjc113_4783"
    INDEX 01 00:32:50
  TRACK 31 AUDIO
    TITLE "0:"
    INDEX 01 00:36:44
  TRACK 32 AUDIO
    TITLE "8:cjc113_4784"
    INDEX 01 00:37:10
  TRACK 33 AUDIO
    TITLE "0:"
    INDEX 01 00:38:20
  TRACK 34 AUDIO
    TITLE "9:cjc113_4785"
    INDEX 01 00:38:30
  TRACK 35 AUDIO
    TITLE "0:"
    INDEX 01 00:39:39
  TRACK 36 AUDIO
    TITLE "10:cjc113_4786"
    INDEX 01 00:39:51
  TRACK 37 AUDIO
    TITLE "0:"
    INDEX 01 00:42:43
  TRACK 38 AUDIO
    TITLE "8:cjc113_4787"
    INDEX 01 00:42:74
  TRACK 39 AUDIO
    TITLE "0:"
    INDEX 01 00:44:12
  TRACK 40 AUDIO
    TITLE "9:cjc113_4788"
    INDEX 01 00:44:20
  TRACK 41 AUDIO
    TITLE "0:"
    INDEX 01 00:45:41
  TRACK 42 AUDIO
    TITLE "10:cjc113_4789"
    INDEX 01 00:45:49
  TRACK 43 AUDIO
    TITLE "0:"
    INDEX 01 00:49:51
  TRACK 44 AUDIO
    TITLE "8:cjc113_4790"
    INDEX 01 00:50:11
  TRACK 45 AUDIO
    TITLE "0:"
    INDEX 01 00:51:28
  TRACK 46 AUDIO
    TITLE "9:cjc113_4791"
    INDEX 01 00:51:38
  TRACK 47 AUDIO
    TITLE "0:"
    INDEX 01 00:52:43
  TRACK 48 AUDIO
    TITLE "10:cjc113_4792"
    INDEX 01 00:52:47
  TRACK 49 AUDIO
    TITLE "0:"
    INDEX 01 00:56:51
  TRACK 50 AUDIO
    TITLE "8:cjc113_4793"
    INDEX 01 00:57:09
  TRACK 51 AUDIO
    TITLE "0:"
    INDEX 01 00:59:57
  TRACK 52 AUDIO
    TITLE "9:cjc113_4794"
    INDEX 01 00:59:67
  TRACK 53 AUDIO
    TITLE "0:"
    INDEX 01 01:01:03
  TRACK 54 AUDIO
    TITLE "10:cjc113_4795"
    INDEX 01 01:01:11
  TRACK 55 AUDIO
    TITLE "0:"
    INDEX 01 01:04:07
  TRACK 56 AUDIO
    TITLE "8:cjc113_4796"
    INDEX 01 01:04:39
  TRACK 57 AUDIO
    TITLE "0:"
    INDEX 01 01:05:50
  TRACK 58 AUDIO
    TITLE "9:cjc113_4797"
    INDEX 01 01:05:60
  TRACK 59 AUDIO
    TITLE "0:"
    INDEX 01 01:06:69
  TRACK 60 AUDIO
    TITLE "10:cjc113_4798"
    INDEX 01 01:07:06
  TRACK 61 AUDIO
    TITLE "0:"
    INDEX 01 01:10:43
  TRACK 62 AUDIO
    TITLE "8:cjc113_4799"
    INDEX 01 01:10:73
  TRACK 63 AUDIO
    TITLE "0:"
    INDEX 01 01:12:17
  TRACK 64 AUDIO
    TITLE "9:cjc113_4800"
    INDEX 01 01:12:26
  TRACK 65 AUDIO
    TITLE "0:"
    INDEX 01 01:13:44
  TRACK 66 AUDIO
    TITLE "10:cjc113_4801"
    INDEX 01 01:13:45
  TRACK 67 AUDIO
    TITLE "0:"
    INDEX 01 01:17:47
  TRACK 68 AUDIO
    TITLE "8:cjc113_4802"
    INDEX 01 01:18:02
  TRACK 69 AUDIO
    TITLE "0:"
    INDEX 01 01:19:05
  TRACK 70 AUDIO
    TITLE "9:cjc113_4803"
    INDEX 01 01:19:15
  TRACK 71 AUDIO
    TITLE "0:"
    INDEX 01 01:20:36
  TRACK 72 AUDIO
    TITLE "10:cjc113_4804"
    INDEX 01 01:20:48
  TRACK 73 AUDIO
    TITLE "0:"
    INDEX 01 01:25:53
  TRACK 74 AUDIO
    TITLE "8:cjc113_4805"
    INDEX 01 01:26:09
  TRACK 75 AUDIO
    TITLE "0:"
    INDEX 01 01:27:32
  TRACK 76 AUDIO
    TITLE "9:cjc113_4806"
    INDEX 01 01:27:42
  TRACK 77 AUDIO
    TITLE "0:"
    INDEX 01 01:28:49
  TRACK 78 AUDIO
    TITLE "10:cjc113_4807"
    INDEX 01 01:28:57
  TRACK 79 AUDIO
    TITLE "0:"
    INDEX 01 01:31:63
  TRACK 80 AUDIO
    TITLE "10:cjc113_4808"
    INDEX 01 01:31:73
  TRACK 81 AUDIO
    TITLE "0:"
    INDEX 01 01:35:45
  TRACK 82 AUDIO
    TITLE "8:cjc113_4809"
    INDEX 01 01:36:00
  TRACK 83 AUDIO
    TITLE "0:"
    INDEX 01 01:37:13
  TRACK 84 AUDIO
    TITLE "9:cjc113_4810"
    INDEX 01 01:37:24
  TRACK 85 AUDIO
    TITLE "0:"
    INDEX 01 01:38:55
  TRACK 86 AUDIO
    TITLE "10:cjc113_4811"
    INDEX 01 01:38:59
  TRACK 87 AUDIO
    TITLE "0:"
    INDEX 01 01:41:59
